<svg width="1400" height="800" viewBox="0 0 1400 800" xmlns="http://www.w3.org/2000/svg">
  <rect width="1400" height="800" fill="#0F0F10"/>
  <g opacity="0.10" stroke="#F2F2F2" fill="none" stroke-linecap="round">
    <path d="M180 210 H520" stroke-width="2"/>
    <path d="M520 210 L580 210" stroke="#E4571C" stroke-width="2"/>
    <circle cx="180" cy="210" r="8" stroke-width="3"/>
    <circle cx="580" cy="210" r="8" stroke-width="3"/>
    <path d="M760 340 H1120" stroke-width="2"/>
    <circle cx="760" cy="340" r="8" stroke-width="3"/>
    <circle cx="1120" cy="340" r="8" stroke-width="3"/>
    <path d="M280 560 H660" stroke-width="2"/>
    <circle cx="280" cy="560" r="8" stroke-width="3"/>
    <circle cx="660" cy="560" r="8" stroke-width="3"/>
  </g>
  <g opacity="0.16">
    <rect x="530" y="190" width="340" height="340" rx="80" fill="none" stroke="#F2F2F2" stroke-width="16"/>
    <path d="M610 290 H770" stroke="#F2F2F2" stroke-width="18" stroke-linecap="round"/>
    <path d="M610 360 H730" stroke="#F2F2F2" stroke-width="18" stroke-linecap="round"/>
    <path d="M610 430 H790" stroke="#E4571C" stroke-width="18" stroke-linecap="round"/>
    <path d="M770 400 L830 430 L770 460" fill="none" stroke="#E4571C" stroke-width="14" stroke-linecap="round" stroke-linejoin="round"/>
  </g>
  <g fill="#E4571C" opacity="0.25">
    <circle cx="104" cy="660" r="3"/><circle cx="134" cy="660" r="3"/><circle cx="164" cy="660" r="3"/>
    <circle cx="104" cy="690" r="3"/><circle cx="134" cy="690" r="3"/><circle cx="164" cy="690" r="3"/>
    <circle cx="1240" cy="110" r="3"/><circle cx="1270" cy="110" r="3"/><circle cx="1300" cy="110" r="3"/>
    <circle cx="1240" cy="140" r="3"/><circle cx="1270" cy="140" r="3"/><circle cx="1300" cy="140" r="3"/>
  </g>
</svg>