<?xml version="1.0" encoding="UTF-8"?><svg id="Layer_1" xmlns="http://www.w3.org/2000/svg" viewBox="0 0 360 360"><defs><style>.cls-1{fill:#231f20;}.cls-1,.cls-2{stroke-width:0px;}.cls-2{fill:#bb4927;}</style></defs><path class="cls-2" d="m28.1,174.02c0-17.92,14.53-32.44,32.45-32.44,13.51,0,25.08,8.26,29.96,19.99h-9.15c-4.24-7.07-11.98-11.81-20.81-11.81-13.38,0-24.27,10.88-24.27,24.26,0,6.31,2.42,12.06,6.37,16.38l-3.66,7.87c-6.68-5.94-10.89-14.6-10.89-24.25Z"/><path class="cls-2" d="m81.36,186.48h9.15c-1.96,4.72-5.01,8.88-8.83,12.17-.81.69-1.65,1.35-2.52,1.96-2.15,1.52-4.5,2.77-6.99,3.73-.96.37-1.95.7-2.96.98-2.76.76-5.66,1.17-8.66,1.17-3.27,0-6.42-.48-9.4-1.39-1-.3-1.98-.65-2.93-1.04l-1.28,2.82-4,8.82h-8.63l5.84-12.55,1.33-2.85,3.55-7.62,1.36-2.92,14.2-30.5,13.81,30.76c-1.99,1.73-4.28,3.07-6.76,3.95l-7.27-16.66-7.48,16.47-1.28,2.83c.96.38,1.96.7,2.97.96,1.91.49,3.91.75,5.97.75,1.83,0,3.62-.21,5.34-.59,1.02-.23,2.03-.53,3-.89,2.5-.91,4.8-2.23,6.83-3.86.85-.68,1.65-1.42,2.4-2.21,1.23-1.29,2.32-2.72,3.24-4.25Z"/><path class="cls-2" d="m80.46,203.49l5.47,12.18h-8.81l-3.71-8.49c2.48-.96,4.85-2.2,7.05-3.69Z"/><path class="cls-1" d="m145.6,163.93c-2.06,3.55-5.33,5.42-9.4,5.42-5.64,0-10.28-5.06-10.28-10.47,0-6.13,4.84-10.64,10.31-10.64,3.85,0,7.45,1.76,9.51,5.58h-3.57c-1.54-1.79-3.33-2.86-5.72-2.86-4.26,0-7.56,3.6-7.56,7.64,0,4.26,3.22,8.03,7.4,8.03,2.12,0,4.01-.82,5.66-2.69h3.66Z"/><path class="cls-1" d="m164.43,169.35c-5.64,0-10.42-4.84-10.42-10.34,0-6.24,4.78-10.78,10.5-10.78,6.05,0,10.67,4.76,10.67,10.42,0,6.16-4.76,10.7-10.75,10.7Zm7.78-10.5c0-4.21-3.19-7.89-7.48-7.89-5.5,0-7.75,4.73-7.75,7.75,0,4.1,2.97,7.92,7.62,7.92s7.62-4.07,7.62-7.78Z"/><path class="cls-1" d="m184.99,168.97v-20.35h2.97v17.62h7.07v2.72h-10.04Z"/><path class="cls-1" d="m203.8,168.97v-20.35h2.97v17.62h7.07v2.72h-10.04Z"/><path class="cls-1" d="m222.49,168.97v-20.35h2.97v20.35h-2.97Z"/><path class="cls-1" d="m243.71,153.9c0-1.84-1.18-2.94-2.86-2.94-1.43,0-2.72,1.29-2.72,2.78s.96,2.25,2.94,2.89c4.4,1.4,6.02,3.05,6.02,6.57s-2.64,6.16-6.24,6.16-6.21-2.58-6.27-6.41h2.97c.03,2.2,1.32,3.68,3.3,3.68s3.27-1.43,3.27-3.44c0-1.48-.66-2.42-2.83-3.16-5.03-1.7-6.13-3.35-6.13-6.24,0-3.11,2.56-5.55,5.69-5.55,3.35,0,5.77,2.12,5.83,5.66h-2.97Z"/><path class="cls-1" d="m256.47,168.97v-20.35h2.97v20.35h-2.97Z"/><path class="cls-1" d="m279.53,169.35c-5.64,0-10.42-4.84-10.42-10.34,0-6.24,4.78-10.78,10.5-10.78,6.05,0,10.67,4.76,10.67,10.42,0,6.16-4.76,10.7-10.75,10.7Zm7.78-10.5c0-4.21-3.19-7.89-7.48-7.89-5.5,0-7.75,4.73-7.75,7.75,0,4.1,2.97,7.92,7.62,7.92s7.62-4.07,7.62-7.78Z"/><path class="cls-1" d="m313.07,168.97l-10.06-15.73h-.05v15.73h-2.97v-20.35h3.24l9.9,15.48h.05v-15.48h2.97v20.35h-3.08Z"/><path class="cls-1" d="m140.66,208.62l-2.25-5.99h-7.31l-2.26,5.99h-3.13l7.73-20.35h2.67l7.72,20.35h-3.16Zm-5.86-16.5h-.05l-2.61,7.78h5.25l-2.58-7.78Z"/><path class="cls-1" d="m173.4,203.59c-2.06,3.55-5.33,5.42-9.4,5.42-5.64,0-10.28-5.06-10.28-10.47,0-6.13,4.84-10.64,10.31-10.64,3.85,0,7.45,1.76,9.51,5.58h-3.57c-1.54-1.79-3.33-2.86-5.72-2.86-4.26,0-7.56,3.6-7.56,7.64,0,4.26,3.22,8.03,7.4,8.03,2.12,0,4.01-.82,5.66-2.69h3.66Z"/><path class="cls-1" d="m198.27,208.62l-2.25-5.99h-7.31l-2.26,5.99h-3.13l7.73-20.35h2.67l7.72,20.35h-3.16Zm-5.86-16.5h-.05l-2.61,7.78h5.25l-2.58-7.78Z"/><path class="cls-1" d="m213.45,208.62v-20.35h7.07c6.16,0,9.92,4.87,9.92,10.17,0,6.21-3.93,10.17-10.36,10.17h-6.63Zm6.52-2.72c4.7,0,7.51-2.75,7.51-7.4s-3.22-7.51-7.37-7.51h-3.68v14.9h3.55Z"/><path class="cls-1" d="m243.46,208.62v-20.35h10.97v2.72h-8v5.99h8v2.72h-8v6.19h8v2.72h-10.97Z"/><path class="cls-1" d="m286.54,208.62v-17.18h-.08l-6.85,17.18h-1.79l-6.87-17.18h-.05v17.18h-2.97v-20.35h4.67l6.1,15.59,6.13-15.59h4.67v20.35h-2.97Z"/><path class="cls-1" d="m308.12,208.62v-7.34l-6.32-13h3.33l4.48,9.54,4.45-9.54h3.3l-6.27,13v7.34h-2.97Z"/><rect class="cls-1" x="113.96" y="177.51" width="215.14" height="1.36" rx=".68" ry=".68"/></svg>